<?xml version="1.0" encoding="utf-8"?>
<!-- Generator: Adobe Illustrator 29.5.0, SVG Export Plug-In . SVG Version: 9.03 Build 0)  -->
<svg version="1.0" id="Layer_1" xmlns="http://www.w3.org/2000/svg" xmlns:xlink="http://www.w3.org/1999/xlink" x="0px" y="0px"
	 viewBox="0 0 500 500" style="enable-background:new 0 0 500 500;" xml:space="preserve">
<style type="text/css">
	.st0{fill:#111111;}
</style>
<g>
	<path class="st0" d="M267.01,58.66c-6.43-2.99-13.99-1.89-19.34,2.81L128.73,165.88H18.08C8.09,165.88,0,174.09,0,184.22v140.11
		c0,10.13,8.09,18.35,18.08,18.35h108.87l120.72,105.98c3.35,2.94,7.57,4.47,11.83,4.47c2.55,0,5.11-0.54,7.51-1.66
		c6.43-2.99,10.56-9.5,10.56-16.68V75.35C277.57,68.17,273.44,61.65,267.01,58.66z"/>
	<path class="st0" d="M336.87,166.77c-5.48-8.47-16.68-10.83-25.03-5.27c-8.35,5.56-10.67,16.93-5.19,25.4
		c26.89,41.58,26.89,95.32,0,136.91c-5.48,8.47-3.15,19.84,5.19,25.4c3.06,2.04,6.5,3.01,9.9,3.01c5.89,0,11.66-2.92,15.13-8.28
		C371.67,290.13,371.67,220.59,336.87,166.77z"/>
	<path class="st0" d="M387.64,113.85c-5.92-8.16-17.24-9.89-25.28-3.88c-8.04,6.01-9.75,17.5-3.83,25.65
		c25.37,34.93,38.78,76.34,38.78,119.74c0,43.4-13.41,84.8-38.78,119.74c-5.92,8.16-4.21,19.64,3.83,25.65
		c3.23,2.42,6.99,3.58,10.71,3.58c5.55,0,11.02-2.58,14.57-7.46c29.98-41.29,45.83-90.22,45.83-141.51S417.63,155.14,387.64,113.85z
		"/>
	<path class="st0" d="M434.18,65.55c-6.25-7.9-17.63-9.16-25.41-2.81c-7.78,6.35-9.02,17.89-2.77,25.79
		c37.31,47.13,57.85,106.38,57.85,166.83c0,60.45-20.54,119.7-57.85,166.83c-6.25,7.9-5.01,19.45,2.77,25.79
		c3.34,2.72,7.34,4.04,11.31,4.04c5.29,0,10.53-2.35,14.1-6.86C476.63,391.55,500,324.14,500,255.36
		C500,186.58,476.63,119.17,434.18,65.55z"/>
</g>
</svg>
