<?xml version="1.0" encoding="UTF-8"?>
<svg id="Layer_1" xmlns="http://www.w3.org/2000/svg" version="1.1" viewBox="0 0 32 32">
  <!-- Generator: Adobe Illustrator 29.5.0, SVG Export Plug-In . SVG Version: 2.1.0 Build 137)  -->
  <defs>
    <style>
      .st0 {
        fill: #231f20;
      }
    </style>
  </defs>
  <g id="grid-2">
    <path class="st0" d="M9.03,1.24c0-.69-.55-1.24-1.22-1.24H1.22C.55,0,0,.56,0,1.24v6.7c0,.68.55,1.24,1.22,1.24h6.59c.67,0,1.22-.56,1.22-1.24,0,0,0-6.7,0-6.7Z"/>
    <path class="st0" d="M20.39,1.24c0-.69-.55-1.24-1.22-1.24h-6.59c-.67,0-1.22.56-1.22,1.24v6.7c0,.68.55,1.24,1.22,1.24h6.59c.68,0,1.22-.56,1.22-1.24V1.24Z"/>
    <path class="st0" d="M32,1.24c0-.69-.55-1.24-1.22-1.24h-6.59c-.68,0-1.22.56-1.22,1.24v6.7c0,.68.55,1.24,1.22,1.24h6.59c.67,0,1.22-.56,1.22-1.24,0,0,0-6.7,0-6.7Z"/>
    <path class="st0" d="M9.03,12.52c0-.69-.55-1.24-1.22-1.24H1.22c-.68,0-1.22.56-1.22,1.24v6.7c0,.69.55,1.24,1.22,1.24h6.59c.67,0,1.22-.55,1.22-1.24,0,0,0-6.7,0-6.7Z"/>
    <path class="st0" d="M20.39,12.52c0-.69-.55-1.24-1.22-1.24h-6.59c-.67,0-1.22.56-1.22,1.24v6.7c0,.69.55,1.24,1.22,1.24h6.59c.68,0,1.22-.55,1.22-1.24v-6.7Z"/>
    <path class="st0" d="M32,12.52c0-.69-.55-1.24-1.22-1.24h-6.59c-.68,0-1.22.56-1.22,1.24v6.7c0,.69.55,1.24,1.22,1.24h6.59c.67,0,1.22-.55,1.22-1.24v-6.7Z"/>
    <path class="st0" d="M9.03,24.06c0-.68-.55-1.24-1.22-1.24H1.22c-.68,0-1.22.56-1.22,1.24v6.7c0,.69.55,1.24,1.22,1.24h6.59c.67,0,1.22-.56,1.22-1.24,0,0,0-6.7,0-6.7Z"/>
    <path class="st0" d="M20.39,24.06c0-.68-.55-1.24-1.22-1.24h-6.59c-.67,0-1.22.56-1.22,1.24v6.7c0,.69.55,1.24,1.22,1.24h6.59c.68,0,1.22-.56,1.22-1.24,0,0,0-6.7,0-6.7Z"/>
    <path class="st0" d="M32,24.06c0-.68-.55-1.24-1.22-1.24h-6.59c-.68,0-1.22.56-1.22,1.24v6.7c0,.69.55,1.24,1.22,1.24h6.59c.67,0,1.22-.56,1.22-1.24,0,0,0-6.7,0-6.7Z"/>
  </g>
</svg>