<?xml version="1.0" encoding="UTF-8"?>
<svg id="Capa_1" xmlns="http://www.w3.org/2000/svg" version="1.1" viewBox="0 0 800 800">
  <!-- Generator: Adobe Illustrator 29.5.0, SVG Export Plug-In . SVG Version: 2.1.0 Build 137)  -->
  <path d="M597.47,0H202.53C90.67,0,0,90.67,0,202.53v394.94c0,111.86,90.67,202.53,202.53,202.53h394.94c111.86,0,202.53-90.67,202.53-202.53V202.53c0-111.86-90.67-202.53-202.53-202.53ZM573,485.41c0,48.38-39.22,87.59-87.59,87.59h-170.81c-48.38,0-87.59-39.22-87.59-87.59v-170.81c0-48.38,39.22-87.59,87.59-87.59h170.81c48.38,0,87.59,39.22,87.59,87.59v170.81Z"/>
</svg>